# xmcd CD database file
# Copyright (C) 1993-1996 Ti Kan
#
# Track frame offsets:
#	150
#	21987
#	37735
#	51707
#	66880
#	95160
#	106655
#	118837
#	133460
#	152810
#
# Disc length: 2545 seconds
#
# Revision: 1
# Processed by: cddbd v1.4b41PL1 Copyright (c) Steve Scherf et al.
# Submitted via: xmcd 2.0
#
DISCID=9109ef0a
DTITLE=Taj Mahal - The Best of Taj Mahal Volume 1
DYEAR=1900
DGENRE=
TTITLE0=Leaving Trunk
TTITLE1=She Caught the Katy and Left Me a Mule to Ride
TTITLE2=Fishing Blues
TTITLE3=Farther On Down the Road
TTITLE4=You're Going to Need Somebody on Your Bond
TTITLE5=Cakewalk Into Town
TTITLE6=Chevrolet
TTITLE7=Johnny Too Bad
TTITLE8=Take a Giant Step
TTITLE9=Ain't Gwine Whistle Dixie (Any Mo')
EXTD=Great Blues\n
EXTT0=
EXTT1=
EXTT2=
EXTT3=
EXTT4=
EXTT5=
EXTT6=
EXTT7=
EXTT8=
EXTT9=
PLAYORDER=
